<svg width="39" height="58" viewBox="0 0 39 58" fill="none" xmlns="http://www.w3.org/2000/svg">
<path d="M32.7155 0H20.7462C19.915 0 19.25 0.658681 19.25 1.48203V11.7245C19.4827 11.7245 19.7155 11.6916 19.915 11.6916C23.805 11.6916 26.9636 14.8203 26.9636 18.6736C26.9636 18.9041 26.9636 19.1347 26.9303 19.3652H37.3037C38.1349 19.3652 38.7999 18.7065 38.7999 17.8832V1.48203C38.7999 0.658681 38.1349 0 37.3037 0H32.7155Z" fill="#0E2E80"/>
<path d="M37.299 0H29.9844V7.21256C29.9844 8.03591 30.6493 8.69459 31.4805 8.69459H38.7951V1.48203C38.7951 0.658681 38.1302 0 37.299 0Z" fill="#265EEB"/>
<path d="M37.6701 35.6021L31.087 35.7009C30.1228 35.7009 29.9565 36.3267 29.9233 36.6889V36.9195V39.4225C29.89 44.3955 25.2353 48.4464 19.4834 48.4464C13.7315 48.4464 9.07673 44.3955 9.07673 39.4225V30.168H19.9489V25.689C16.9565 25.689 14.3964 23.8117 13.3657 21.2099H9.10997V7.44351C9.10997 6.65309 8.47826 6.02734 7.68031 6.02734H1.42967C0.631714 6.02734 0 6.65309 0 7.44351V37.0842C0 39.7518 0.432225 42.2877 1.32992 44.626C4.12276 52.0033 10.7724 56.8775 18.6189 57.2727C18.7187 57.2727 18.9847 57.2727 19.3171 57.2727C21.5115 57.2727 27.9616 56.8446 33.0153 52.0362C36.8389 48.4135 38.8338 43.3087 39 36.8865C39 36.162 38.4015 35.5692 37.6701 35.5692V35.6021Z" fill="#265EEB"/>
</svg>
