<svg width="182" height="58" viewBox="0 0 182 58" fill="none" xmlns="http://www.w3.org/2000/svg">
<g clip-path="url(#clip0_40_6825)">
<path d="M21.8375 0H13.8483C13.2935 0 12.8496 0.442748 12.8496 0.996183V7.88092C13.005 7.88092 13.1603 7.85878 13.2935 7.85878C15.89 7.85878 17.9982 9.96183 17.9982 12.5519C17.9982 12.7069 17.9983 12.8618 17.9761 13.0168H24.9001C25.4549 13.0168 25.8987 12.574 25.8987 12.0206V0.996183C25.8987 0.442748 25.4549 0 24.9001 0H21.8375Z" fill="#0B3C7B"/>
<path d="M24.8999 0H20.0176V4.84809C20.0176 5.40153 20.4614 5.84427 21.0162 5.84427H25.8986V0.996183C25.8986 0.442748 25.4547 0 24.8999 0Z" fill="#3082EC"/>
<path d="M38.6593 38.5855C35.508 38.5855 33.0002 37.6336 31.1361 35.7298C29.2719 33.826 28.3398 31.258 28.3398 28.0481C28.3398 24.8382 29.3163 22.4695 31.247 20.4992C33.1778 18.5511 35.6855 17.555 38.7703 17.555C40.9229 17.555 42.7649 18.0198 44.2962 18.9496C45.8275 19.8794 46.9815 21.1634 47.7582 22.8015C48.5127 24.4397 48.9122 26.3435 48.9122 28.4908V28.6015C48.9122 28.8893 48.8234 29.0885 48.6681 29.2435C48.4906 29.3985 48.2908 29.4649 48.0245 29.4649H34.1986C34.3096 30.926 34.7756 32.0771 35.6411 32.8962C36.4845 33.7374 37.5719 34.158 38.8812 34.158C40.4125 34.158 41.5221 33.6489 42.2767 32.6527C42.5652 32.2763 42.9203 32.0992 43.3419 32.0992H47.6029C48.1577 32.0992 48.424 32.2542 48.424 32.5641C48.424 32.7191 48.3574 32.9183 48.2464 33.1618C47.5141 34.7779 46.3379 36.084 44.7178 37.058C43.0756 38.0321 41.0783 38.5412 38.7259 38.5412L38.6593 38.5855ZM34.3096 25.8344H42.9646C42.8093 24.5282 42.3876 23.5321 41.6331 22.8237C40.8786 22.1153 39.9243 21.7389 38.7037 21.7389C37.4831 21.7389 36.5067 22.0931 35.7077 22.8237C34.9088 23.5542 34.4428 24.5504 34.2874 25.8344H34.3096Z" fill="#0B3C7B"/>
<path d="M58.632 38.342C56.4794 38.342 54.7483 37.8328 53.439 36.7924C52.1296 35.7519 51.4639 34.313 51.4639 32.4977C51.4639 31.5679 51.6858 30.7267 52.1074 29.9962C52.5513 29.2656 53.1061 28.6458 53.7941 28.1809C54.482 27.716 55.3475 27.2954 56.3462 26.9412C57.367 26.587 58.3657 26.3214 59.3866 26.1443C60.4074 25.9672 61.517 25.8344 62.7154 25.7237C62.8486 25.7237 63.1371 25.6794 63.5809 25.6573C64.0248 25.6351 64.3133 25.613 64.4464 25.613C64.4464 24.2405 64.2023 23.2221 63.7141 22.5802C63.2258 21.916 62.4047 21.6061 61.2951 21.6061C59.6085 21.6061 58.5654 22.2924 58.166 23.6427C58.0106 24.174 57.6999 24.4397 57.2339 24.4397H53.3058C52.7288 24.4397 52.4403 24.2183 52.4403 23.7977C52.4403 23.687 52.4625 23.5321 52.5069 23.3328C52.9286 21.5618 53.8828 20.1672 55.3697 19.171C56.8566 18.1748 58.8317 17.6656 61.2729 17.6656C62.7376 17.6656 64.0026 17.8206 65.0456 18.1084C66.0887 18.3962 66.9986 18.8832 67.7531 19.5695C68.5076 20.2557 69.0625 21.1634 69.4175 22.3145C69.7726 23.4656 69.9723 24.8824 69.9723 26.5427V32.5641C69.9723 34.2023 70.0389 35.5748 70.1499 36.7038C70.1943 37.0359 70.2165 37.2573 70.2165 37.3458C70.2165 37.7886 69.9501 38.0321 69.4175 38.0321H65.8889C65.3341 38.0321 65.0234 37.7664 64.979 37.213C64.9347 36.5931 64.9125 36.1282 64.9347 35.8183C64.5352 36.2168 64.1801 36.5267 63.8694 36.7702C63.5587 37.0137 63.1371 37.2794 62.6488 37.5672C62.1384 37.855 61.5392 38.0542 60.8735 38.2092C60.2077 38.3641 59.4309 38.4305 58.5654 38.4305L58.632 38.342ZM60.4518 34.6008C63.1149 34.6008 64.4464 33.029 64.4464 29.9076C64.4464 29.6198 64.4464 29.3985 64.4908 29.2214L63.47 29.3321C61.2285 29.5977 59.6751 29.9298 58.7874 30.3504C57.8997 30.771 57.4558 31.4351 57.4558 32.2985C57.4558 33.0069 57.7221 33.5603 58.2769 33.9809C58.8317 34.4015 59.5419 34.6008 60.4296 34.6008H60.4518Z" fill="#0B3C7B"/>
<path d="M75.9207 37.9878C75.3437 37.9878 75.0552 37.7 75.0552 37.1244V19.1267C75.0108 18.5511 75.2993 18.2634 75.8763 18.2634H79.76C80.337 18.2634 80.6255 18.5511 80.6255 19.1267V20.9641C81.0916 20.0565 81.8239 19.2817 82.8226 18.684C83.8212 18.0863 85.064 17.7763 86.5953 17.7763C89.2362 17.7763 91.1447 18.8832 92.3209 21.0748H92.3875C92.8979 20.1893 93.6969 19.4145 94.8065 18.7504C95.8939 18.1084 97.2476 17.7763 98.8677 17.7763C99.8442 17.7763 100.732 17.9313 101.531 18.2191C102.33 18.5069 103.062 18.9939 103.728 19.6359C104.394 20.2779 104.904 21.1634 105.259 22.2924C105.636 23.4214 105.814 24.7718 105.814 26.2992V37.1244C105.814 37.7 105.525 37.9878 104.948 37.9878H100.798C100.221 37.9878 99.9329 37.7 99.9329 37.1244V28.4466C99.9329 26.2771 99.711 24.7053 99.2894 23.7756C98.8677 22.8237 98.0688 22.3588 96.9148 22.3588C95.6942 22.3588 94.7843 22.8237 94.2295 23.7534C93.6525 24.6832 93.364 26.0557 93.364 27.8931V37.1466C93.364 37.7221 93.0755 38.0099 92.4985 38.0099H88.3485C87.7715 38.0099 87.483 37.7221 87.483 37.1466V28.4687C87.483 26.2992 87.2833 24.7275 86.8394 23.7977C86.4178 22.8458 85.6188 22.3809 84.4648 22.3809C83.2442 22.3809 82.3343 22.8458 81.7795 23.7756C81.2025 24.7053 80.9362 26.0779 80.9362 27.9153V37.1687C80.9362 37.7443 80.6477 38.0321 80.0707 38.0321H75.9207V37.9878Z" fill="#0B3C7B"/>
<path d="M136.55 37.9878C135.973 37.9878 135.684 37.7 135.684 37.1244V19.1267C135.64 18.5511 135.928 18.2634 136.505 18.2634H140.234C140.811 18.2634 141.099 18.5733 141.099 19.171C141.099 19.9015 141.077 20.6321 141.033 21.3847H141.099C142.053 18.9718 143.873 17.7763 146.603 17.7763C147.024 17.7763 147.335 17.8427 147.513 17.9534C147.69 18.0641 147.801 18.3076 147.801 18.684V22.1153C147.801 22.5137 147.69 22.7573 147.491 22.8679C147.269 22.9786 146.869 23.045 146.27 23.045C145.671 23.045 145.116 23.1115 144.65 23.2221C144.184 23.3328 143.784 23.5099 143.451 23.7092C143.119 23.9084 142.83 24.2183 142.608 24.6168C142.386 25.0153 142.209 25.4137 142.053 25.8344C141.92 26.255 141.809 26.7863 141.743 27.4504C141.676 28.1145 141.632 28.7565 141.61 29.3985C141.587 30.0405 141.565 30.8374 141.565 31.7893V37.1244C141.565 37.7 141.277 37.9878 140.7 37.9878H136.55Z" fill="#0B3C7B"/>
<path d="M152.24 15.9168C151.663 15.9168 151.374 15.629 151.374 15.0534V11.9763C151.374 11.4008 151.663 11.113 152.24 11.113H156.39C156.967 11.113 157.255 11.4008 157.255 11.9763V15.0534C157.255 15.629 156.967 15.9168 156.39 15.9168H152.24ZM152.24 37.9878C151.663 37.9878 151.374 37.7 151.374 37.1244V19.1267C151.374 18.5511 151.663 18.2634 152.24 18.2634H156.39C156.967 18.2634 157.255 18.5511 157.255 19.1267V37.1244C157.255 37.7 156.967 37.9878 156.39 37.9878H152.24Z" fill="#0B3C7B"/>
<path d="M170.283 38.4748C167.597 38.4748 165.467 37.545 163.847 35.6634C162.227 33.7817 161.428 31.2802 161.428 28.1366C161.428 24.9931 162.249 22.4252 163.869 20.5435C165.489 18.6618 167.597 17.6878 170.216 17.6878C172.835 17.6878 174.743 18.5733 176.163 20.3221L176.119 16.2931V11.9763C176.119 11.4008 176.408 11.113 176.985 11.113H181.135C181.712 11.113 182 11.4008 182 11.9763V37.1244C182 37.7 181.712 37.9878 181.135 37.9878H177.318C176.741 37.9878 176.452 37.7 176.452 37.1244C176.452 36.2389 176.452 35.6412 176.496 35.3534C175.964 36.1947 175.187 36.9252 174.144 37.545C173.101 38.1649 171.814 38.4748 170.283 38.4748ZM172.08 33.9366C173.456 33.9366 174.543 33.3832 175.32 32.2985C176.097 31.1916 176.496 29.7527 176.496 27.9153C176.496 26.0779 176.097 24.7939 175.276 23.7313C174.477 22.6908 173.389 22.1595 172.08 22.1595C170.771 22.1595 169.617 22.713 168.84 23.7977C168.041 24.8824 167.642 26.2992 167.642 28.026C167.642 29.7527 168.041 31.1695 168.84 32.2763C169.639 33.3832 170.726 33.9366 172.08 33.9366Z" fill="#0B3C7B"/>
<path d="M25.144 23.9305L20.7499 23.997C20.1063 23.997 19.9954 24.4176 19.9732 24.6611V24.816V26.4985C19.951 29.8412 16.844 32.5641 13.0048 32.5641C9.16547 32.5641 6.05853 29.8412 6.05853 26.4985V20.2779H13.3154V17.2672C11.3181 17.2672 9.60931 16.0053 8.92135 14.2565H6.08072V5.00306C6.08072 4.47176 5.65907 4.05115 5.12645 4.05115H0.954274C0.421656 4.05115 0 4.47176 0 5.00306V24.9267C0 26.7199 0.288501 28.4244 0.887697 29.9962C2.75186 34.955 7.19034 38.2313 12.4278 38.4969C12.4943 38.4969 12.6719 38.4969 12.8938 38.4969C14.3585 38.4969 18.6638 38.2092 22.0371 34.9771C24.5892 32.542 25.9207 29.1107 26.0317 24.7939C26.0317 24.3069 25.6322 23.9084 25.144 23.9084V23.9305Z" fill="#3082EC"/>
<path d="M127.275 38V43.2474C127.275 46.5044 125.094 49.4598 121.911 50.1232C117.548 51.028 113.705 47.6704 113.705 43.4484V43.2675C113.705 42.7246 113.104 42.7649 113.104 42.7649H108.781C108.14 42.7649 108.02 43.1267 108 43.368C108.18 49.6005 112.664 55.0891 118.849 55.8933C126.475 56.8785 133 50.9073 133 43.4484V38.6635C133 38.3016 132.72 38.0201 132.359 38.0201H127.275V38Z" fill="#3082EC"/>
<path d="M130.98 18.2412H126.342C125.099 18.2412 125.232 19.3924 125.232 19.3924C123.057 18.3298 120.527 17.9534 117.864 18.529C113.559 19.4366 110.119 22.9786 109.276 27.2733C108.432 31.6343 110.163 35.6855 113.204 38.1649L127.473 38.1427C129.981 36.084 131.579 32.9626 131.579 29.487V18.8389C131.579 18.5069 131.313 18.2412 130.98 18.2412ZM125.077 30.7267C124.655 32.4313 123.257 33.8481 121.526 34.2687C117.864 35.1542 114.646 31.9443 115.534 28.2916C115.956 26.587 117.354 25.1702 119.085 24.7496C122.746 23.8641 125.964 27.074 125.077 30.7267Z" fill="#3082EC"/>
</g>
<defs>
<clipPath id="clip0_40_6825">
<rect width="182" height="58" fill="white"/>
</clipPath>
</defs>
</svg>
